<?xml version="1.0" encoding="utf-8"?>
<!-- Generator: Adobe Illustrator 19.0.0, SVG Export Plug-In . SVG Version: 6.00 Build 0)  -->
<svg version="1.1" id="Calque_1" xmlns="http://www.w3.org/2000/svg" xmlns:xlink="http://www.w3.org/1999/xlink" x="0px" y="0px"
	 viewBox="0 0 434.7 183.6" style="enable-background:new 0 0 434.7 183.6;" xml:space="preserve">
<style type="text/css">
	.st0{fill:url(#XMLID_100_);}
	.st1{fill:url(#XMLID_101_);}
	.st2{fill:url(#XMLID_102_);}
	.st3{fill:url(#XMLID_103_);}
	.st4{fill:url(#XMLID_104_);}
	.st5{fill:url(#XMLID_105_);}
	.st6{fill:#ADA114;}
	.st7{fill:url(#XMLID_106_);}
	.st8{fill:url(#XMLID_107_);}
</style>
<g id="XMLID_2_">
	<linearGradient id="XMLID_100_" gradientUnits="userSpaceOnUse" x1="28.2205" y1="130.3659" x2="28.2205" y2="38.0207">
		<stop  offset="9.817236e-008" style="stop-color:#5CA4CD"/>
		<stop  offset="0.2941" style="stop-color:#2A4084"/>
	</linearGradient>
	<path id="XMLID_4_" class="st0" d="M0,39.8c5.7-1,13.2-1.8,22.7-1.8c11.7,0,20.3,2.7,25.7,7.6c5,4.4,8,11,8,19.2
		c0,8.3-2.4,14.8-7.1,19.6c-6.3,6.7-16.5,10.1-28,10.1c-3.5,0-6.8-0.1-9.5-0.8v36.7H0V39.8z M11.8,84c2.6,0.7,5.8,1,9.8,1
		c14.3,0,23-6.9,23-19.6c0-12.1-8.6-18-21.6-18c-5.2,0-9.1,0.4-11.2,1V84z"/>
	<linearGradient id="XMLID_101_" gradientUnits="userSpaceOnUse" x1="98.124" y1="129.3659" x2="98.124" y2="37.7009">
		<stop  offset="9.817236e-008" style="stop-color:#5CA4CD"/>
		<stop  offset="0.2941" style="stop-color:#2A4084"/>
	</linearGradient>
	<path id="XMLID_7_" class="st1" d="M119.8,86.4H84.2v33h39.7v9.9H72.4V37.7h49.5v9.9H84.2v29h35.6V86.4z"/>
	<linearGradient id="XMLID_102_" gradientUnits="userSpaceOnUse" x1="173.6707" y1="130.3659" x2="173.6707" y2="38.7009">
		<stop  offset="9.817236e-008" style="stop-color:#5CA4CD"/>
		<stop  offset="0.2941" style="stop-color:#2A4084"/>
	</linearGradient>
	<path id="XMLID_9_" class="st2" d="M139.3,130.4V38.7h12.9l29.4,46.4c6.8,10.7,12.1,20.4,16.5,29.8l0.3-0.1
		c-1.1-12.2-1.4-23.4-1.4-37.7V38.7h11.2v91.7h-12L167,83.9c-6.4-10.2-12.5-20.7-17.1-30.6l-0.4,0.1c0.7,11.6,1,22.6,1,37.8v39.2
		H139.3z"/>
	<linearGradient id="XMLID_103_" gradientUnits="userSpaceOnUse" x1="262.4097" y1="131.862" x2="262.4097" y2="38.7009">
		<stop  offset="9.817236e-008" style="stop-color:#5CA4CD"/>
		<stop  offset="0.2941" style="stop-color:#2A4084"/>
	</linearGradient>
	<path id="XMLID_11_" class="st3" d="M240.6,38.7V93c0,20.5,9.1,29.2,21.4,29.2c13.6,0,22.3-9,22.3-29.2V38.7h12v53.4
		c0,28.2-14.8,39.7-34.7,39.7c-18.8,0-32.9-10.7-32.9-39.2v-54H240.6z"/>
	<linearGradient id="XMLID_104_" gradientUnits="userSpaceOnUse" x1="342.5117" y1="130.3659" x2="342.5117" y2="38.7009">
		<stop  offset="9.817236e-008" style="stop-color:#5CA4CD"/>
		<stop  offset="0.2941" style="stop-color:#2A4084"/>
	</linearGradient>
	<path id="XMLID_13_" class="st4" d="M364.2,87.4h-35.6v33h39.7v9.9h-51.5V38.7h49.5v9.9h-37.7v29h35.6V87.4z"/>
	<linearGradient id="XMLID_105_" gradientUnits="userSpaceOnUse" x1="409.1499" y1="130.3659" x2="409.1499" y2="38.7009">
		<stop  offset="9.817236e-008" style="stop-color:#5CA4CD"/>
		<stop  offset="0.2941" style="stop-color:#2A4084"/>
	</linearGradient>
	<path id="XMLID_15_" class="st5" d="M383.6,38.7h11.8v81.7h39.2v9.9h-51V38.7z"/>
	<path id="XMLID_17_" class="st6" d="M3.1,178.5c1.7,1.1,4.2,1.9,6.9,1.9c3.9,0,6.2-2.1,6.2-5.1c0-2.8-1.6-4.4-5.6-5.9
		c-4.8-1.7-7.8-4.2-7.8-8.4c0-4.6,3.8-8.1,9.6-8.1c3,0,5.2,0.7,6.6,1.5l-1.1,3.1c-1-0.5-2.9-1.4-5.6-1.4c-4,0-5.6,2.4-5.6,4.4
		c0,2.8,1.8,4.1,5.9,5.7c5,1.9,7.6,4.4,7.6,8.7c0,4.6-3.4,8.5-10.4,8.5c-2.9,0-6-0.8-7.6-1.9L3.1,178.5z"/>
	<path id="XMLID_19_" class="st6" d="M78.3,169.3H66.8V180h12.9v3.2H62.9v-29.7h16v3.2H66.8v9.4h11.5V169.3z"/>
	<path id="XMLID_21_" class="st6" d="M122.2,153.9c1.9-0.4,4.7-0.6,7.3-0.6c4.1,0,6.7,0.7,8.6,2.4c1.5,1.3,2.3,3.3,2.3,5.6
		c0,3.9-2.5,6.5-5.6,7.6v0.1c2.3,0.8,3.7,2.9,4.4,6c1,4.1,1.7,7,2.3,8.1h-4c-0.5-0.8-1.1-3.4-2-7.1c-0.9-4.1-2.5-5.6-5.9-5.8H126
		v12.8h-3.8V153.9z M126,167.4h3.9c4.1,0,6.7-2.2,6.7-5.6c0-3.8-2.8-5.5-6.8-5.5c-1.8,0-3.2,0.2-3.8,0.4V167.4z"/>
	<path id="XMLID_24_" class="st6" d="M190.7,183.2l-9.7-29.7h4.1l4.6,14.6c1.3,4,2.4,7.6,3.2,11.1h0.1c0.8-3.4,2.1-7.2,3.4-11
		l5-14.7h4.1l-10.6,29.7H190.7z"/>
	<path id="XMLID_26_" class="st6" d="M250.2,153.5v29.7h-3.8v-29.7H250.2z"/>
	<path id="XMLID_28_" class="st6" d="M315.2,182.2c-1.4,0.7-4.2,1.4-7.8,1.4c-8.4,0-14.7-5.3-14.7-15c0-9.3,6.3-15.6,15.5-15.6
		c3.7,0,6,0.8,7,1.3l-0.9,3.1c-1.5-0.7-3.5-1.2-6-1.2c-7,0-11.6,4.4-11.6,12.2c0,7.3,4.2,11.9,11.4,11.9c2.3,0,4.7-0.5,6.2-1.2
		L315.2,182.2z"/>
	<path id="XMLID_30_" class="st6" d="M373,169.3h-11.5V180h12.8v3.2h-16.7v-29.7h16v3.2h-12.2v9.4H373V169.3z"/>
	<path id="XMLID_32_" class="st6" d="M416.4,178.5c1.7,1.1,4.2,1.9,6.9,1.9c3.9,0,6.2-2.1,6.2-5.1c0-2.8-1.6-4.4-5.6-5.9
		c-4.8-1.7-7.8-4.2-7.8-8.4c0-4.6,3.8-8.1,9.6-8.1c3,0,5.2,0.7,6.6,1.5l-1.1,3.1c-1-0.5-2.9-1.4-5.6-1.4c-4,0-5.6,2.4-5.6,4.4
		c0,2.8,1.8,4.1,5.9,5.7c5,1.9,7.6,4.4,7.6,8.7c0,4.6-3.4,8.5-10.4,8.5c-2.9,0-6-0.8-7.6-1.9L416.4,178.5z"/>
</g>
<linearGradient id="XMLID_106_" gradientUnits="userSpaceOnUse" x1="207.3527" y1="33.9613" x2="229.9935" y2="11.3204">
	<stop  offset="9.817236e-008" style="stop-color:#5CA4CD"/>
	<stop  offset="0.8775" style="stop-color:#2A4286"/>
	<stop  offset="1" style="stop-color:#2A4084"/>
</linearGradient>
<polyline id="XMLID_36_" class="st7" points="239.5,24.4 197.8,24.4 218.7,0 "/>
<linearGradient id="XMLID_107_" gradientUnits="userSpaceOnUse" x1="0" y1="142.6091" x2="434.6504" y2="142.6091">
	<stop  offset="1.963447e-007" style="stop-color:#CCCCCC"/>
	<stop  offset="0.7026" style="stop-color:#2581C4;stop-opacity:0"/>
</linearGradient>
<rect id="XMLID_1_" y="140.5" class="st8" width="434.7" height="4.1"/>
</svg>
